<?xml version="1.0" standalone="no"?>
<!DOCTYPE svg PUBLIC "-//W3C//DTD SVG 1.1//EN" "http://www.w3.org/Graphics/SVG/1.1/DTD/svg11.dtd" >
<svg xmlns="http://www.w3.org/2000/svg">
<metadata>
This is a custom SVG webfont generated by Font Squirrel.
Copyright   : COM4tCommunicate by Four Typeface CHideki Katayama All Rights Reserved FFF
</metadata>
<defs>
<font id="spirequalLightRegular" horiz-adv-x="636" >
<font-face units-per-em="2048" ascent="1721" descent="-327" />
<missing-glyph horiz-adv-x="408" />
<glyph unicode=" "  horiz-adv-x="408" />
<glyph unicode="&#x09;" horiz-adv-x="408" />
<glyph unicode="&#xa0;" horiz-adv-x="408" />
<glyph unicode="!" horiz-adv-x="300" d="M0 79l78 78l79 -78l-79 -78zM29 1249h93l-34 -932h-27z" />
<glyph unicode="&#x22;" horiz-adv-x="518" d="M0 790v392l65 66l67 -66zM200 790v392l65 66l66 -66z" />
<glyph unicode="#" horiz-adv-x="717" d="M0 512v67h144l33 306h-177v68h184l33 295h37l-33 -295h196l32 295h37l-32 -295h147v-68h-154l-34 -306h188v-67h-196l-34 -319h-37l35 319h-196l-35 -319h-36l34 319h-136zM181 579h195l34 306h-196z" />
<glyph unicode="$" horiz-adv-x="756" d="M0 163v229l71 -222q89 -73 192 -74q11 0 30 2v518q-137 87 -179 126q-87 79 -97 169q-2 17 -2 34q0 224 278 242v141h37v-140h7q107 0 227 -61v-229l-62 207q-88 54 -172 54v-455q122 -77 171 -122q82 -76 93 -157q4 -30 4 -58q0 -120 -71.5 -199t-196.5 -97v-155h-37 v150q-21 -2 -37 -1q-59 0 -130 25q-79 28 -126 73zM97 972q0 -20 4 -39q15 -89 192 -205v429q-88 -9 -140 -56q-56 -50 -56 -129zM330 104q92 20 141 93q40 62 39 143q0 133 -180 252v-488z" />
<glyph unicode="%" horiz-adv-x="1299" d="M0 914q0 343 234 343q233 0 233 -343t-233 -343q-234 0 -234 343zM83 914q0 -317 151 -317q150 0 150 317t-150 317q-151 0 -151 -317zM213 0l648 1248h43l-648 -1248h-43zM658 334q0 344 234 344q233 0 234 -344q0 -343 -234 -343t-234 343zM743 334q0 -316 149 -316 q150 0 150 316q0 317 -150 317q-149 0 -149 -317z" />
<glyph unicode="&#x26;" horiz-adv-x="1096" d="M0 342q0 214 242 381q-77 156 -78 288q0 110 52 175q57 71 166 71q207 0 207 -177q0 -32 -7 -67q-15 -76 -73 -130q-29 -28 -154 -114l-30 -20q107 -200 365 -459q56 144 59 349l-1 -1l-89 31h210l-82 -30q-4 -222 -70 -375q81 -81 178 -168l58 98l-67 -211 q-123 111 -212 199q-120 -191 -314 -191q-360 0 -360 351zM96 361v-37q8 -145 82 -227q70 -78 177 -78q185 0 295 186q-280 276 -394 490q-160 -134 -160 -334zM245 1034q0 -126 69 -263q87 56 122 100q46 55 61 144q5 31 5 59q0 157 -118 157q-139 0 -139 -197z" />
<glyph unicode="'" horiz-adv-x="305" d="M0 790v392l65 66l66 -66z" />
<glyph unicode="(" horiz-adv-x="433" d="M0 546q0 345 112.5 601.5t274.5 267.5v-29q-124 -11 -203 -227q-83 -230 -83 -613q0 -385 83 -615q79 -216 203 -227v-28q-162 9 -275 268q-112 256 -112 602z" />
<glyph unicode=")" horiz-adv-x="561" d="M0 -296q124 11 202 227q84 230 85 615q0 384 -85 613q-78 216 -202 227v29q162 -10 274.5 -267t112.5 -602q0 -346 -112 -602q-114 -259 -275 -268v28z" />
<glyph unicode="*" horiz-adv-x="662" d="M0 762l20 74l261 88l-206 -182zM0 1086l75 20l206 -182l-261 88zM226 655l55 269l54 -269l-54 -55zM226 1194l55 54l55 -54l-55 -270zM281 924l206 182l74 -20l-20 -75zM281 924l260 -88l20 -74l-75 -20z" />
<glyph unicode="+" horiz-adv-x="613" d="M0 377v37h231v231h37v-231h230v-37h-230v-231h-37v231h-231z" />
<glyph unicode="," horiz-adv-x="333" d="M0 79l78 78l79 -78l-136 -246l38 181z" />
<glyph unicode="-" horiz-adv-x="598" d="M0 376v36h498v-36h-498z" />
<glyph unicode="." horiz-adv-x="300" d="M9 79l79 78l78 -78l-78 -78z" />
<glyph unicode="/" horiz-adv-x="777" d="M-15 0l648 1248h44l-648 -1248h-44z" />
<glyph unicode="0" horiz-adv-x="814" d="M0 624q0 308 92 476q87 157 233 157t233 -157q92 -168 93 -476q0 -307 -93 -475q-87 -158 -233 -158t-233 158q-92 168 -92 475zM97 624q0 -281 62 -442.5t167 -161.5q104 0 166 161t62 443t-63 445q-61 160 -165 160q-105 0 -166 -160q-63 -163 -63 -445z" />
<glyph unicode="1" horiz-adv-x="458" d="M0 1178l207 70v-1217l101 -31h-294l101 31v1155l-106 -37z" />
<glyph unicode="2" horiz-adv-x="706" d="M0 0q10 181 104 357q9 16 178 281q102 159 122 282q8 46 8 88q0 221 -159 221q-77 0 -137 -42l-65 -216v229q91 57 201 57q123 0 194 -73q67 -70 67 -184q0 -40 -10 -83q-29 -141 -134 -280l-187 -238q-104 -149 -135 -318h429l37 125v-206h-513z" />
<glyph unicode="3" horiz-adv-x="639" d="M0 46v229l65 -215q55 -35 121 -35q104 0 163 98q52 89 52 226q0 326 -264 310v30q99 2 163 74q63 69 72 180q2 30 1 57q0 229 -162 229q-73 0 -128 -37l-65 -218v230q85 53 192 53q126 0 197 -79q66 -74 66 -193q0 -32 -5 -64q-11 -73 -62 -137q-53 -66 -131 -97 q98 -17 157 -96q67 -88 67 -234q0 -145 -77 -249q-85 -113 -224 -112q-115 0 -198 50z" />
<glyph unicode="4" horiz-adv-x="765" d="M0 330v30l389 888h92v-888h124l54 149v-179h-178v-299l102 -31h-296l102 31v299h-389zM34 360h355v817z" />
<glyph unicode="5" horiz-adv-x="639" d="M0 46v229l65 -212q62 -38 134 -38q94 0 151 116q51 103 51 245q0 138 -62 226q-65 93 -175 93q-65 0 -139 -36l38 579h358l22 75v-150h-354l-28 -451q77 32 147 32q130 0 210.5 -100t80.5 -260q0 -151 -77 -268q-87 -131 -224 -130q-115 0 -198 50z" />
<glyph unicode="6" horiz-adv-x="698" d="M0 576q0 305 84 486q92 195 263 195q102 0 192 -64v-235l-77 242q-43 29 -114 29q-116 0 -183 -174q-59 -156 -67 -412q77 137 217 137q131 0 206 -110q72 -106 72 -281q0 -152 -72 -267q-82 -132 -217 -131q-304 0 -304 585zM97 576q0 -272 39 -399q48 -157 169 -157 q93 0 146 116q45 101 45 245q0 351 -203 353q-40 0 -92 -34q-66 -42 -104 -118v-6z" />
<glyph unicode="7" horiz-adv-x="605" d="M-34 1051v197h540q-193 -363 -250 -687q-33 -188 -32 -561h-106q0 569 315 1173h-430z" />
<glyph unicode="8" horiz-adv-x="721" d="M0 345q0 132 57 221q54 85 147 116q-170 53 -170 274q0 137 70.5 219t189.5 82q120 0 190.5 -82t70.5 -219q0 -221 -170 -274q93 -30 146 -116q58 -89 58 -221q0 -163 -86 -258q-81 -91 -209 -91t-209 91q-85 95 -85 258zM89 345q0 -163 63 -248q54 -74 142 -74t142 74 q63 85 63 248t-63 248q-54 75 -142 75t-142 -75q-63 -85 -63 -248zM122 956q0 -261 172 -261t172 261q0 275 -172 275t-172 -275z" />
<glyph unicode="9" horiz-adv-x="746" d="M0 851q0 156 67 271q79 135 214 135q298 0 298 -584q0 -310 -78 -487q-87 -195 -257 -195q-114 0 -176 39v247l83 -240q40 -17 93 -17q113 0 175 180q54 157 61 417q-65 -125 -202 -125q-129 0 -207 109q-71 99 -71 250zM97 859q0 -151 51.5 -235.5t144.5 -84.5 q135 0 189 156v2q0 271 -35 386q-45 145 -166 145h-1q-92 0 -141 -120q-42 -100 -42 -249z" />
<glyph unicode=":" horiz-adv-x="245" d="M0 220l78 79l79 -79l-79 -77zM0 710l78 78l79 -78l-79 -78z" />
<glyph unicode=";" horiz-adv-x="316" d="M0 220l78 79l79 -79l-136 -245l38 180zM0 710l78 78l79 -78l-79 -78z" />
<glyph unicode="&#x3c;" horiz-adv-x="333" d="M0 401l260 490h44l-260 -490l260 -489h-44z" />
<glyph unicode="=" horiz-adv-x="628" d="M0 265v37h498v-37h-498zM0 489v37h498v-37h-498z" />
<glyph unicode="&#x3e;" horiz-adv-x="448" d="M0 -88l260 489l-260 490h44l260 -490l-260 -489h-44z" />
<glyph unicode="?" horiz-adv-x="464" d="M0 971v229q91 57 201 57q126 0 195 -60.5t69 -167.5q0 -39 -10 -82q-20 -90 -89 -182q-89 -118 -110 -164q-54 -114 -55 -285h-31q0 163 37 280q19 59 80 172q52 98 68 177q11 49 12 92q0 192 -165 192q-77 0 -137 -42zM105 78l78 79l79 -79l-79 -78z" />
<glyph unicode="@" horiz-adv-x="1116" d="M0 623q0 301 144 473q135 161 351 161q210 0 345 -161q138 -164 138 -427q0 -136 -62 -245q-50 -89 -118 -127q-61 -35 -119 -35q-79 0 -110 61q-60 -56 -134 -56q-95 0 -148.5 62.5t-53.5 170.5q0 61 17 132q41 163 132 252.5t213 89.5q52 0 87 -20l72 42l-109 -512 q-10 -49 -11 -86q0 -102 71 -101q34 0 74 24q67 40 107 145q37 96 37 203q0 248 -124 403q-121 151 -303 152q-188 0 -304 -152q-124 -162 -124 -449t124 -448q115 -151 304 -151q167 0 295 98l18 -28q-132 -103 -314 -103q-217 0 -351 160q-144 171 -144 472zM312 472 q0 -179 129 -179q63 0 117 60q-4 17 -6 37q-2 34 8 76l99 462q-31 19 -70 19q-176 0 -255 -315q-22 -90 -22 -160z" />
<glyph unicode="A" horiz-adv-x="870" d="M-120 0l111 31l332 1187l-93 30h295l-93 -30l332 -1187l110 -31h-294l92 31l-143 509h-359l-142 -509l92 -31h-240zM181 577h338l-169 604z" />
<glyph unicode="B" horiz-adv-x="875" d="M0 0l102 31v1187l-102 30h286q174 0 272 -79.5t98 -219.5q0 -194 -216 -259q288 -51 288 -351q0 -144 -98 -239q-102 -100 -272 -100h-358zM194 31h146q144 0 225 90q75 83 75 215q0 328 -326 327h-120v-632zM194 700h131q18 0 39 -1q204 43 204 254q0 265 -300 265h-74 v-518z" />
<glyph unicode="C" horiz-adv-x="784" d="M0 624q0 633 414 633q152 0 247 -70v-229l-67 221q-84 50 -179 50q-139 0 -224 -147q-94 -161 -94 -458t94 -458q84 -146 224 -146q89 0 170 47l76 237v-244q-95 -70 -247 -69q-414 0 -414 633z" />
<glyph unicode="D" horiz-adv-x="919" d="M0 0l102 31v1187l-102 30h354q186 0 294 -141q125 -161 125 -483t-125 -484q-108 -140 -294 -140h-354zM194 31h161q135 0 223 143q98 161 98 450q0 290 -97 450q-88 144 -223 144h-162v-1187z" />
<glyph unicode="E" horiz-adv-x="801" d="M0 0l102 31v1187l-102 30h645v-220l-64 190h-387v-512h264l53 148v-333l-53 148h-264v-638h400l70 202v-233h-664z" />
<glyph unicode="F" horiz-adv-x="777" d="M0 0l102 31v1187l-81 30h644v-220l-64 190h-407v-512h264l54 148v-333l-54 148h-264v-638l100 -31h-294z" />
<glyph unicode="G" horiz-adv-x="830" d="M0 624q0 633 414 633q152 0 247 -70v-229l-67 221q-83 50 -179 50q-139 0 -224 -147q-94 -161 -94 -458t94 -458q84 -146 224 -146q85 0 168 39v487l-105 43h197v-529q-95 -70 -261 -69q-414 0 -414 633z" />
<glyph unicode="H" horiz-adv-x="1043" d="M0 0l102 31v1187l-102 30h282l-88 -30v-512h506v512l-89 30h282l-101 -30v-1187l101 -31h-282l89 31v638h-506v-638l88 -31h-282z" />
<glyph unicode="I" horiz-adv-x="444" d="M0 0l102 31v1187l-102 30h294l-100 -30v-1187l100 -31h-294z" />
<glyph unicode="J" horiz-adv-x="567" d="M-51 22l1 184l58 -164q46 -13 93 -13q161 0 161 301v888l-101 30h294l-101 -30v-888q0 -156 -69 -245t-179 -89q-91 0 -157 26z" />
<glyph unicode="K" horiz-adv-x="937" d="M0 0l102 31v1187l-102 30h282l-88 -30v-639l487 639l-92 30h262l-126 -33l-376 -488l426 -691l123 -36h-301l83 30l-386 624l-100 -131v-492l88 -31h-282z" />
<glyph unicode="L" horiz-adv-x="761" d="M0 0l102 31v1187l-102 30h294l-100 -30v-1187h391l79 227v-258h-664z" />
<glyph unicode="M" horiz-adv-x="1199" d="M-28 0l101 31v1187l-101 30h287l-72 -24l333 -1124l333 1118l-93 30h306l-101 -30v-1187l101 -31h-282l89 31v1127l-346 -1158h-74l-342 1150v-1119l89 -31h-228z" />
<glyph unicode="N" horiz-adv-x="988" d="M0 0l102 31v1187l-102 30h287l-68 -23l518 -1078v1070l-89 31h228l-102 -31v-1217h-76l-559 1186v-1155l89 -31h-228z" />
<glyph unicode="O" horiz-adv-x="958" d="M0 624q0 329 116 490q102 143 282 143q181 0 284 -143q115 -162 115 -490q0 -329 -115 -491q-102 -143 -284 -142q-181 0 -282 142q-116 162 -116 491zM101 624q0 -297 87 -458q80 -146 211 -146t211 146q88 161 88 458t-88 458q-80 147 -211 147t-211 -147 q-87 -161 -87 -458z" />
<glyph unicode="P" horiz-adv-x="848" d="M0 0l102 31v1187l-102 30h336q172 0 262.5 -79t90.5 -220t-89 -218q-91 -80 -264 -80h-142v-620l100 -31h-294zM194 681h124q281 0 283 268q0 2 1 5q0 264 -284 264h-124v-537z" />
<glyph unicode="Q" horiz-adv-x="962" d="M0 624q0 329 116 490q102 143 282 143q181 0 284 -143q115 -162 115 -490q0 -587 -349 -630q109 -270 301 -270q15 0 44 6l55 156v-175q-63 -14 -100 -14q-157 0 -258 90q-72 65 -139 207q-351 41 -351 630zM101 624q0 -297 87 -458q80 -146 211 -146t211 146 q88 161 88 458t-88 458q-80 147 -211 147t-211 -147q-87 -161 -87 -458z" />
<glyph unicode="R" horiz-adv-x="890" d="M0 0l102 31v1187l-102 30h306q174 0 272 -79.5t98 -219.5q0 -102 -77.5 -182.5t-193.5 -101.5q150 -61 227 -249q48 -120 92 -388l-1 3l105 -31h-288l86 30q-53 638 -417 638h-15v-637l88 -31h-282zM194 698h28q66 0 124 -14q126 16 192 107q51 71 51 162q0 265 -301 265 h-94v-520z" />
<glyph unicode="S" horiz-adv-x="733" d="M0 94v230l71 -223q89 -73 192 -73q127 0 194 81q53 65 53 162q0 26 -4 50q-20 98 -143 223q-109 106 -219 212q-117 124 -127 224q-2 16 -2 32q0 245 322 245q107 0 227 -61v-230l-62 208q-88 55 -172 55q-102 0 -166 -49q-67 -51 -67 -139q0 -19 4 -39q15 -84 136 -207 q112 -107 223 -214q121 -127 134 -225q4 -30 4 -58q0 -139 -92 -220.5t-250 -81.5q-59 0 -130 26q-79 27 -126 72z" />
<glyph unicode="T" horiz-adv-x="871" d="M-17 1028v220h791v-220l-62 190h-287v-1187l101 -31h-295l102 31v1187h-287z" />
<glyph unicode="U" horiz-adv-x="1005" d="M0 1248h282l-88 -30v-857q0 -167 95 -250q77 -68 192 -68q103 0 177 72q88 87 88 246v856l-89 31h240l-102 -31v-841q0 -215 -118 -312q-87 -73 -225 -73q-139 0 -229 73q-121 98 -121 312v842z" />
<glyph unicode="V" horiz-adv-x="943" d="M-85 1248h288l-83 -28l308 -1118l321 1116l-93 30h237l-99 -30l-351 -1218h-82l-338 1214z" />
<glyph unicode="W" horiz-adv-x="1296" d="M-17 1248h288l-84 -28l248 -1110l164 613l-132 492l-96 33h274l-90 -28l89 -332l87 330l-86 30h219l-86 -30l-112 -416l186 -702l243 1118l-93 30h236l-97 -30l-268 -1218h-80l-171 638l-171 -638h-83l-279 1215z" />
<glyph unicode="X" horiz-adv-x="965" d="M-17 0l101 31v-1l302 614l-280 568l-117 36h295l-78 -26l242 -492l251 489l-87 29h229l-101 -30l-270 -530l323 -655l104 -33h-295l87 29l-281 571l-282 -571l87 -29h-230z" />
<glyph unicode="Y" horiz-adv-x="968" d="M-34 1248h299l-88 -29l301 -634l290 633l-92 30h234l-103 -29l-311 -679v-509l101 -31h-295l102 31v509l-326 677z" />
<glyph unicode="Z" horiz-adv-x="781" d="M-34 0l557 1218h-419l-64 -190v220h589l-558 -1217h486l70 202v-233h-661z" />
<glyph unicode="[" horiz-adv-x="380" d="M0 -325v1741h351v-37h-259v-1668h259v-36h-351z" />
<glyph unicode="\" horiz-adv-x="691" d="M0 1248h44l648 -1248h-44z" />
<glyph unicode="]" horiz-adv-x="525" d="M0 -289h259v1668h-259v37h351v-1741h-351v36z" />
<glyph unicode="^" horiz-adv-x="815" d="M0 685l357 563l357 -563h-47l-310 489l-310 -489h-47z" />
<glyph unicode="_" horiz-adv-x="883" d="M0 0v37h782v-37h-782z" />
<glyph unicode="`" horiz-adv-x="372" d="M0 1182l45 66l86 -66l155 -392z" />
<glyph unicode="a" d="M0 157v10q0 136 139 221q115 53 229 106v77q0 188 -122 189q-75 0 -126 -42l-67 -184v184q101 76 213 75q99 0 141 -49.5t42 -165.5v-538h89l-170 -55v111q-58 -105 -182 -105q-83 0 -133 45t-53 121zM78 185q0 -62 26 -108q33 -57 92 -56q129 0 172 129v312 q-93 -42 -186 -83q-104 -67 -104 -194z" />
<glyph unicode="b" horiz-adv-x="744" d="M0 1183l182 65v-519q52 59 128 58q124 0 196.5 -105t72.5 -293t-72.5 -293t-196.5 -105q-78 0 -129 46l-79 -52v1198h-102zM182 83q51 -65 128 -65q186 0 186 371q0 372 -186 372q-82 0 -128 -85v-593z" />
<glyph unicode="c" horiz-adv-x="625" d="M0 394q0 200 82 304q75 95 205 95q102 0 187 -62v-185l-68 190q-60 29 -119 29q-203 0 -204 -371q0 -371 204 -371q65 0 117 29l70 195v-186q-87 -65 -187 -65q-130 0 -205 94q-82 104 -82 304z" />
<glyph unicode="d" horiz-adv-x="660" d="M0 389q0 188 73 293t197 105q77 0 128 -58v454h-101l181 65v-1208h91l-171 -55v51q-50 -46 -128 -45q-124 0 -197 105t-73 293zM83 389q0 -371 187 -371q77 0 128 65v593q-46 84 -128 85q-187 0 -187 -372z" />
<glyph unicode="e" horiz-adv-x="650" d="M0 394q0 189 70.5 294t193.5 105q113 0 178 -88q61 -82 61 -226v-19h-417q-2 -35 -2 -66q0 -371 180 -371q78 0 146 58l86 225l1 -168q-91 -142 -233 -142q-123 0 -193.5 104.5t-70.5 293.5zM88 490h328v18q0 257 -152 257q-153 0 -176 -275z" />
<glyph unicode="f" horiz-adv-x="477" d="M0 756v31h106v168q0 133 59 209q57 73 147 73q51 0 111 -23v-184l-62 175q-24 8 -51 7q-123 0 -123 -253v-172h217v-31h-217v-725l100 -31h-282l101 31v725h-106z" />
<glyph unicode="g" horiz-adv-x="624" d="M0 394q0 188 73 293.5t197 105.5q80 0 131 -49l77 52v-753q0 -159 -64.5 -254.5t-171.5 -95.5q-78 0 -151 28l1 184l59 -168q41 -15 84 -16q163 0 163 318v15q-51 -59 -128 -58q-124 0 -197 105t-73 293zM84 394q0 -371 186 -371q82 0 128 84v593q-51 65 -128 65 q-186 0 -186 -371z" />
<glyph unicode="h" horiz-adv-x="737" d="M0 0l102 31v1152h-102l182 65v-592q36 63 102 101q62 36 120 36q164 0 165 -215v-547l100 -31h-271l90 31v540q0 188 -101 189q-142 0 -205 -167v-562l89 -31h-271z" />
<glyph unicode="i" horiz-adv-x="380" d="M0 0l102 31v725l-102 31h283l-101 -31v-725l101 -31h-283zM64 1145l77 78l78 -78l-78 -78z" />
<glyph unicode="j" horiz-adv-x="369" d="M-136 -283l1 184l62 -176q22 -6 57 -6q110 0 110 278v759l-101 31h282l-100 -31v-756q0 -137 -53.5 -222t-139.5 -85q-57 0 -118 24zM56 1144l78 79l79 -79l-79 -77z" />
<glyph unicode="k" horiz-adv-x="704" d="M0 0l102 31v1152h-102l182 65v-882l299 386l-101 35h267l-126 -34l-209 -267l259 -447l109 -39h-267l77 30l-227 394l-81 -105v-288l89 -31h-271z" />
<glyph unicode="l" horiz-adv-x="346" d="M0 0l102 31v1152h-102l182 65v-1217l101 -31h-283z" />
<glyph unicode="m" horiz-adv-x="1017" d="M0 0l102 31v710h-102l182 65v-148q71 135 191 135q133 0 151 -142q71 143 196 142q85 0 119.5 -49.5t34.5 -165.5v-547l102 -31h-271l88 31v540q0 188 -91 189q-112 0 -175 -167l1 -15v-547l89 -31h-259l89 31v540q0 188 -91 189q-112 0 -174 -166v-563l89 -31h-271z" />
<glyph unicode="n" horiz-adv-x="765" d="M0 0l102 31v710h-102l182 65v-150q37 63 102 101q62 36 120 36q164 0 165 -215v-547l100 -31h-271l90 31v540q0 188 -101 189q-141 0 -205 -167v-562l89 -31h-271z" />
<glyph unicode="o" horiz-adv-x="631" d="M0 394q0 189 70.5 294t193.5 105t193.5 -105t70.5 -294t-70.5 -293.5t-193.5 -104.5t-193.5 104.5t-70.5 293.5zM84 394q0 -371 180 -371t180 371t-180 371t-180 -371z" />
<glyph unicode="p" horiz-adv-x="766" d="M0 753l183 54v-58q50 45 128 44q123 0 196 -105t73 -293t-73 -293t-196 -105q-77 0 -128 57v-329l101 -30h-283l101 30v1028h-102zM183 107q46 -83 128 -83q186 0 186 371q0 372 -186 372q-77 0 -128 -65v-595z" />
<glyph unicode="q" horiz-adv-x="658" d="M0 395q0 188 73 293t197 105q79 0 130 -47l78 54v-1075l101 -30h-283l102 30v329q-52 -58 -128 -57q-124 0 -197 105t-73 293zM84 395q0 -371 186 -371q81 0 128 83v595q-51 65 -128 65q-186 0 -186 -372z" />
<glyph unicode="r" horiz-adv-x="565" d="M0 0l102 31v711h-102l182 65v-125q69 114 172 113q54 0 101 -23l-1 -184l-60 171q-19 5 -37 5q-80 0 -127.5 -88.5t-47.5 -242.5v-402l101 -31h-283z" />
<glyph unicode="s" horiz-adv-x="567" d="M0 75v205l76 -210q38 -47 113 -48q69 0 116 43q50 45 50 118q0 77 -91 150l-168 122q-91 75 -92 154q0 186 206 186q77 0 166 -48v-193l-69 182q-51 33 -111 32q-133 0 -132 -122q0 -66 88 -134q83 -59 166 -117q89 -75 90 -158q0 -117 -70 -182q-63 -59 -163 -58 q-98 0 -175 78z" />
<glyph unicode="t" horiz-adv-x="476" d="M-17 976l177 60v-248h210v-31h-210v-510q0 -225 123 -225q18 0 35 4l64 179v-184q-34 -24 -111 -24q-192 0 -192 253v507h-92v31h92v188h-96z" />
<glyph unicode="u" horiz-adv-x="741" d="M0 742l182 65v-602q0 -176 115 -177q128 0 191 167v547h-102l183 65v-741h88l-169 -65v131q-76 -137 -208 -137q-178 0 -178 202v545h-102z" />
<glyph unicode="v" horiz-adv-x="729" d="M-51 788h283l-92 -31l-1 1l192 -703l202 704l-92 29h232l-110 -33l-1 1l-216 -755h-78l-209 757z" />
<glyph unicode="w" horiz-adv-x="888" d="M-94 788h283l-91 -30l154 -698l119 400l-97 328h223l-75 -256l132 -472l165 698l-94 30h232l-109 -33l-177 -754h-64l-121 409l-120 -409h-72l-179 757zM359 758l48 -174l52 174l-51 16z" />
<glyph unicode="x" horiz-adv-x="651" d="M-89 1l116 34l198 365l-179 356l-111 32h280l-85 -31l-1 1l149 -297l162 296l-85 31h233l-117 -34l-177 -325l196 -393l119 -35h-279l81 29l-170 338l-182 -336l84 -31h-232z" />
<glyph unicode="y" horiz-adv-x="735" d="M-51 788h283l-92 -30l200 -639l205 640l-92 29h236l-109 -33l-241 -754q-49 -156 -83 -217q-49 -89 -111 -89q-66 0 -103 30l1 184l65 -181q18 -9 40 -9q76 0 150 266l-238 772z" />
<glyph unicode="z" horiz-adv-x="626" d="M0 1l373 759h-268l-62 -185v213h423l-374 -759h303l69 199v-227h-464z" />
<glyph unicode="{" horiz-adv-x="499" d="M0 546q114 15 114 209q0 30 -4 63q-8 74 -8 139q0 445 367 459l1 -29q-132 -9 -200 -74q-94 -89 -94 -303q0 -85 16 -191q6 -44 6 -83q0 -148 -78 -190q77 -43 78 -191q0 -39 -6 -84q-15 -106 -16 -191q0 -213 94 -303q68 -65 200 -73l-1 -29q-367 14 -367 459 q0 65 8 138q3 34 4 64q0 195 -114 210z" />
<glyph unicode="|" horiz-adv-x="228" d="M29 -327v2048h37v-2048h-37z" />
<glyph unicode="}" horiz-adv-x="586" d="M0 -296q133 8 200 73q94 90 93 303q0 85 -15 191q-6 45 -6 84q0 148 77 191q-77 42 -77 190q0 40 6 83q15 106 15 191q0 213 -93 303q-67 65 -200 74l1 29q367 -14 366 -459q0 -65 -7 -139q-3 -34 -4 -63q0 -194 114 -209q-114 -15 -114 -210q0 -31 4 -64q8 -73 7 -139 q0 -445 -366 -458z" />
<glyph unicode="~" horiz-adv-x="706" d="M0 1101q46 130 146 147q19 3 37 3q69 0 154 -57q111 -74 173 -66q65 9 110 90q-48 -130 -141 -147q-15 -3 -32 -2q-78 0 -168 66q-82 59 -144 59q-18 0 -39 -7q-53 -19 -96 -86z" />
<glyph unicode="&#xa5;" horiz-adv-x="972" d="M-58 1248h299l-85 -28l296 -525l284 523l-90 30h240l-106 -30l-290 -535h271v-37h-289v-188h289v-37h-289v-390l101 -31h-295l101 31v390h-289v37h289v188h-289v37h269l-301 533z" />
<glyph unicode="&#xaa;" d="M0 157v10q0 136 139 221q115 53 229 106v77q0 188 -122 189q-75 0 -126 -42l-67 -184v184q101 76 213 75q99 0 141 -49.5t42 -165.5v-538h89l-170 -55v111q-58 -105 -182 -105q-83 0 -133 45t-53 121zM78 185q0 -62 26 -108q33 -57 92 -56q129 0 172 129v312 q-93 -42 -186 -83q-104 -67 -104 -194z" />
<glyph unicode="&#xad;" horiz-adv-x="598" d="M0 376v36h498v-36h-498z" />
<glyph unicode="&#xb2;" horiz-adv-x="706" d="M0 0q10 181 104 357q9 16 178 281q102 159 122 282q8 46 8 88q0 221 -159 221q-77 0 -137 -42l-65 -216v229q91 57 201 57q123 0 194 -73q67 -70 67 -184q0 -40 -10 -83q-29 -141 -134 -280l-187 -238q-104 -149 -135 -318h429l37 125v-206h-513z" />
<glyph unicode="&#xb3;" horiz-adv-x="639" d="M0 46v229l65 -215q55 -35 121 -35q104 0 163 98q52 89 52 226q0 326 -264 310v30q99 2 163 74q63 69 72 180q2 30 1 57q0 229 -162 229q-73 0 -128 -37l-65 -218v230q85 53 192 53q126 0 197 -79q66 -74 66 -193q0 -32 -5 -64q-11 -73 -62 -137q-53 -66 -131 -97 q98 -17 157 -96q67 -88 67 -234q0 -145 -77 -249q-85 -113 -224 -112q-115 0 -198 50z" />
<glyph unicode="&#xb9;" horiz-adv-x="458" d="M0 1178l207 70v-1217l101 -31h-294l101 31v1155l-106 -37z" />
<glyph unicode="&#xba;" horiz-adv-x="631" d="M0 394q0 189 70.5 294t193.5 105t193.5 -105t70.5 -294t-70.5 -293.5t-193.5 -104.5t-193.5 104.5t-70.5 293.5zM84 394q0 -371 180 -371t180 371t-180 371t-180 -371z" />
<glyph unicode="&#xc0;" horiz-adv-x="870" d="M91 1771l45 66l86 -66l155 -392zM-120 0l111 31l332 1187l-93 30h295l-93 -30l332 -1187l110 -31h-294l92 31l-143 509h-359l-142 -509l92 -31h-240zM181 577h338l-169 604z" />
<glyph unicode="&#xc2;" horiz-adv-x="870" d="M21 1379l357 563l357 -563h-47l-310 489l-310 -489h-47zM-120 0l111 31l332 1187l-93 30h295l-93 -30l332 -1187l110 -31h-294l92 31l-143 509h-359l-142 -509l92 -31h-240zM181 577h338l-169 604z" />
<glyph unicode="&#xc3;" horiz-adv-x="870" d="M67 1412q46 130 146 147q19 3 37 3q69 0 154 -57q111 -74 173 -66q65 9 110 90q-48 -130 -141 -147q-15 -3 -32 -2q-78 0 -168 66q-82 59 -144 59q-18 0 -39 -7q-53 -19 -96 -86zM-120 0l111 31l332 1187l-93 30h295l-93 -30l332 -1187l110 -31h-294l92 31l-143 509h-359 l-142 -509l92 -31h-240zM181 577h338l-169 604z" />
<glyph unicode="&#xc8;" horiz-adv-x="801" d="M36 1771l45 66l86 -66l155 -392zM0 0l102 31v1187l-102 30h645v-220l-64 190h-387v-512h264l53 148v-333l-53 148h-264v-638h400l70 202v-233h-664z" />
<glyph unicode="&#xca;" horiz-adv-x="801" d="M-34 1379l357 563l357 -563h-47l-310 489l-310 -489h-47zM0 0l102 31v1187l-102 30h645v-220l-64 190h-387v-512h264l53 148v-333l-53 148h-264v-638h400l70 202v-233h-664z" />
<glyph unicode="&#xcc;" horiz-adv-x="444" d="M-139 1771l45 66l86 -66l155 -392zM0 0l102 31v1187l-102 30h294l-100 -30v-1187l100 -31h-294z" />
<glyph unicode="&#xce;" horiz-adv-x="444" d="M-210 1379l357 563l357 -563h-47l-310 489l-310 -489h-47zM0 0l102 31v1187l-102 30h294l-100 -30v-1187l100 -31h-294z" />
<glyph unicode="&#xd1;" horiz-adv-x="988" d="M128 1412q46 130 146 147q19 3 37 3q69 0 154 -57q111 -74 173 -66q65 9 110 90q-48 -130 -141 -147q-15 -3 -32 -2q-78 0 -168 66q-82 59 -144 59q-18 0 -39 -7q-53 -19 -96 -86zM0 0l102 31v1187l-102 30h287l-68 -23l518 -1078v1070l-89 31h228l-102 -31v-1217h-76 l-559 1186v-1155l89 -31h-228z" />
<glyph unicode="&#xd2;" horiz-adv-x="958" d="M113 1771l45 66l86 -66l155 -392zM0 624q0 329 116 490q102 143 282 143q181 0 284 -143q115 -162 115 -490q0 -329 -115 -491q-102 -143 -284 -142q-181 0 -282 142q-116 162 -116 491zM101 624q0 -297 87 -458q80 -146 211 -146t211 146q88 161 88 458t-88 458 q-80 147 -211 147t-211 -147q-87 -161 -87 -458z" />
<glyph unicode="&#xd4;" horiz-adv-x="958" d="M41 1379l357 563l357 -563h-47l-310 489l-310 -489h-47zM0 624q0 329 116 490q102 143 282 143q181 0 284 -143q115 -162 115 -490q0 -329 -115 -491q-102 -143 -284 -142q-181 0 -282 142q-116 162 -116 491zM101 624q0 -297 87 -458q80 -146 211 -146t211 146 q88 161 88 458t-88 458q-80 147 -211 147t-211 -147q-87 -161 -87 -458z" />
<glyph unicode="&#xd5;" horiz-adv-x="958" d="M89 1412q46 130 146 147q19 3 37 3q69 0 154 -57q111 -74 173 -66q65 9 110 90q-48 -130 -141 -147q-15 -3 -32 -2q-78 0 -168 66q-82 59 -144 59q-18 0 -39 -7q-53 -19 -96 -86zM0 624q0 329 116 490q102 143 282 143q181 0 284 -143q115 -162 115 -490 q0 -329 -115 -491q-102 -143 -284 -142q-181 0 -282 142q-116 162 -116 491zM101 624q0 -297 87 -458q80 -146 211 -146t211 146q88 161 88 458t-88 458q-80 147 -211 147t-211 -147q-87 -161 -87 -458z" />
<glyph unicode="&#xd9;" horiz-adv-x="1005" d="M163 1771l45 66l86 -66l155 -392zM0 1248h282l-88 -30v-857q0 -167 95 -250q77 -68 192 -68q103 0 177 72q88 87 88 246v856l-89 31h240l-102 -31v-841q0 -215 -118 -312q-87 -73 -225 -73q-139 0 -229 73q-121 98 -121 312v842z" />
<glyph unicode="&#xdb;" horiz-adv-x="1005" d="M91 1379l357 563l357 -563h-47l-310 489l-310 -489h-47zM0 1248h282l-88 -30v-857q0 -167 95 -250q77 -68 192 -68q103 0 177 72q88 87 88 246v856l-89 31h240l-102 -31v-841q0 -215 -118 -312q-87 -73 -225 -73q-139 0 -229 73q-121 98 -121 312v842z" />
<glyph unicode="&#xe0;" d="M-20 1308l45 66l86 -66l155 -392zM0 157v10q0 136 139 221q115 53 229 106v77q0 188 -122 189q-75 0 -126 -42l-67 -184v184q101 76 213 75q99 0 141 -49.5t42 -165.5v-538h89l-170 -55v111q-58 -105 -182 -105q-83 0 -133 45t-53 121zM78 185q0 -62 26 -108 q33 -57 92 -56q129 0 172 129v312q-93 -42 -186 -83q-104 -67 -104 -194z" />
<glyph unicode="&#xe2;" d="M-91 916l357 563l357 -563h-47l-310 489l-310 -489h-47zM0 157v10q0 136 139 221q115 53 229 106v77q0 188 -122 189q-75 0 -126 -42l-67 -184v184q101 76 213 75q99 0 141 -49.5t42 -165.5v-538h89l-170 -55v111q-58 -105 -182 -105q-83 0 -133 45t-53 121zM78 185 q0 -62 26 -108q33 -57 92 -56q129 0 172 129v312q-93 -42 -186 -83q-104 -67 -104 -194z" />
<glyph unicode="&#xe3;" d="M-44 948q46 130 146 147q19 3 37 3q69 0 154 -57q111 -74 173 -66q65 9 110 90q-48 -130 -141 -147q-15 -3 -32 -2q-78 0 -168 66q-82 59 -144 59q-18 0 -39 -7q-53 -19 -96 -86zM0 157v10q0 136 139 221q115 53 229 106v77q0 188 -122 189q-75 0 -126 -42l-67 -184v184 q101 76 213 75q99 0 141 -49.5t42 -165.5v-538h89l-170 -55v111q-58 -105 -182 -105q-83 0 -133 45t-53 121zM78 185q0 -62 26 -108q33 -57 92 -56q129 0 172 129v312q-93 -42 -186 -83q-104 -67 -104 -194z" />
<glyph unicode="&#xe8;" horiz-adv-x="650" d="M-22 1307l45 66l86 -66l155 -392zM0 394q0 189 70.5 294t193.5 105q113 0 178 -88q61 -82 61 -226v-19h-417q-2 -35 -2 -66q0 -371 180 -371q78 0 146 58l86 225l1 -168q-91 -142 -233 -142q-123 0 -193.5 104.5t-70.5 293.5zM88 490h328v18q0 257 -152 257 q-153 0 -176 -275z" />
<glyph unicode="&#xea;" horiz-adv-x="650" d="M-93 915l357 563l357 -563h-47l-310 489l-310 -489h-47zM0 394q0 189 70.5 294t193.5 105q113 0 178 -88q61 -82 61 -226v-19h-417q-2 -35 -2 -66q0 -371 180 -371q78 0 146 58l86 225l1 -168q-91 -142 -233 -142q-123 0 -193.5 104.5t-70.5 293.5zM88 490h328v18 q0 257 -152 257q-153 0 -176 -275z" />
<glyph unicode="&#xec;" horiz-adv-x="380" d="M-145 1737l45 66l86 -66l155 -392zM0 0l102 31v725l-102 31h283l-101 -31v-725l101 -31h-283zM64 1145l77 78l78 -78l-78 -78z" />
<glyph unicode="&#xee;" horiz-adv-x="380" d="M-216 1345l357 563l357 -563h-47l-310 489l-310 -489h-47zM0 0l102 31v725l-102 31h283l-101 -31v-725l101 -31h-283zM64 1145l77 78l78 -78l-78 -78z" />
<glyph unicode="&#xf1;" horiz-adv-x="765" d="M25 961q46 130 146 147q19 3 37 3q69 0 154 -57q111 -74 173 -66q65 9 110 90q-48 -130 -141 -147q-15 -3 -32 -2q-78 0 -168 66q-82 59 -144 59q-18 0 -39 -7q-53 -19 -96 -86zM0 0l102 31v710h-102l182 65v-150q37 63 102 101q62 36 120 36q164 0 165 -215v-547 l100 -31h-271l90 31v540q0 188 -101 189q-141 0 -205 -167v-562l89 -31h-271z" />
<glyph unicode="&#xf2;" horiz-adv-x="631" d="M-22 1307l45 66l86 -66l155 -392zM0 394q0 189 70.5 294t193.5 105t193.5 -105t70.5 -294t-70.5 -293.5t-193.5 -104.5t-193.5 104.5t-70.5 293.5zM84 394q0 -371 180 -371t180 371t-180 371t-180 -371z" />
<glyph unicode="&#xf4;" horiz-adv-x="631" d="M-93 915l357 563l357 -563h-47l-310 489l-310 -489h-47zM0 394q0 189 70.5 294t193.5 105t193.5 -105t70.5 -294t-70.5 -293.5t-193.5 -104.5t-193.5 104.5t-70.5 293.5zM84 394q0 -371 180 -371t180 371t-180 371t-180 -371z" />
<glyph unicode="&#xf5;" horiz-adv-x="631" d="M-46 947q46 130 146 147q19 3 37 3q69 0 154 -57q111 -74 173 -66q65 9 110 90q-48 -130 -141 -147q-15 -3 -32 -2q-78 0 -168 66q-82 59 -144 59q-18 0 -39 -7q-53 -19 -96 -86zM0 394q0 189 70.5 294t193.5 105t193.5 -105t70.5 -294t-70.5 -293.5t-193.5 -104.5 t-193.5 104.5t-70.5 293.5zM84 394q0 -371 180 -371t180 371t-180 371t-180 -371z" />
<glyph unicode="&#xf9;" horiz-adv-x="741" d="M89 1321l45 66l86 -66l155 -392zM0 742l182 65v-602q0 -176 115 -177q128 0 191 167v547h-102l183 65v-741h88l-169 -65v131q-76 -137 -208 -137q-178 0 -178 202v545h-102z" />
<glyph unicode="&#xfb;" horiz-adv-x="741" d="M19 929l357 563l357 -563h-47l-310 489l-310 -489h-47zM0 742l182 65v-602q0 -176 115 -177q128 0 191 167v547h-102l183 65v-741h88l-169 -65v131q-76 -137 -208 -137q-178 0 -178 202v545h-102z" />
<glyph unicode="&#xff;" horiz-adv-x="408" />
<glyph unicode="&#x152;" horiz-adv-x="1760" d="M959 0l102 31v1187l-102 30h645v-220l-64 190h-387v-512h264l53 148v-333l-53 148h-264v-638h400l70 202v-233h-664zM0 624q0 329 116 490q102 143 282 143q181 0 284 -143q115 -162 115 -490q0 -329 -115 -491q-102 -143 -284 -142q-181 0 -282 142q-116 162 -116 491z M101 624q0 -297 87 -458q80 -146 211 -146t211 146q88 161 88 458t-88 458q-80 147 -211 147t-211 -147q-87 -161 -87 -458z" />
<glyph unicode="&#x153;" horiz-adv-x="1282" d="M632 394q0 189 70.5 294t193.5 105q113 0 178 -88q61 -82 61 -226v-19h-417q-2 -35 -2 -66q0 -371 180 -371q78 0 146 58l86 225l1 -168q-91 -142 -233 -142q-123 0 -193.5 104.5t-70.5 293.5zM720 490h328v18q0 257 -152 257q-153 0 -176 -275zM0 394q0 189 70.5 294 t193.5 105t193.5 -105t70.5 -294t-70.5 -293.5t-193.5 -104.5t-193.5 104.5t-70.5 293.5zM84 394q0 -371 180 -371t180 371t-180 371t-180 -371z" />
<glyph unicode="&#x2c6;" horiz-adv-x="815" d="M0 685l357 563l357 -563h-47l-310 489l-310 -489h-47z" />
<glyph unicode="&#x2dc;" horiz-adv-x="408" d="M-310 154q46 130 146 147q19 3 37 3q69 0 154 -57q111 -74 173 -66q65 9 110 90q-48 -130 -141 -147q-15 -3 -32 -2q-78 0 -168 66q-82 59 -144 59q-18 0 -39 -7q-53 -19 -96 -86z" />
<glyph unicode="&#x2000;" horiz-adv-x="970" />
<glyph unicode="&#x2001;" horiz-adv-x="1942" />
<glyph unicode="&#x2002;" horiz-adv-x="970" />
<glyph unicode="&#x2003;" horiz-adv-x="1942" />
<glyph unicode="&#x2004;" horiz-adv-x="647" />
<glyph unicode="&#x2005;" horiz-adv-x="485" />
<glyph unicode="&#x2006;" horiz-adv-x="323" />
<glyph unicode="&#x2007;" horiz-adv-x="323" />
<glyph unicode="&#x2008;" horiz-adv-x="242" />
<glyph unicode="&#x2009;" horiz-adv-x="388" />
<glyph unicode="&#x200a;" horiz-adv-x="107" />
<glyph unicode="&#x2010;" horiz-adv-x="598" d="M0 376v36h498v-36h-498z" />
<glyph unicode="&#x2011;" horiz-adv-x="598" d="M0 376v36h498v-36h-498z" />
<glyph unicode="&#x2012;" horiz-adv-x="598" d="M0 376v36h498v-36h-498z" />
<glyph unicode="&#x2013;" horiz-adv-x="1024" d="M205 512v205h614v-205h-614z" />
<glyph unicode="&#x2014;" horiz-adv-x="2048" d="M205 512v205h1638v-205h-1638z" />
<glyph unicode="&#x2018;" horiz-adv-x="372" d="M0 1182l45 66l86 -66l155 -392z" />
<glyph unicode="&#x2019;" horiz-adv-x="305" d="M0 790v392l65 66l66 -66z" />
<glyph unicode="&#x201c;" horiz-adv-x="478" d="M0 855l131 393v-393l-65 -65zM200 855l131 393v-393l-65 -65z" />
<glyph unicode="&#x201d;" horiz-adv-x="518" d="M0 790v392l65 66l67 -66zM200 790v392l65 66l66 -66z" />
<glyph unicode="&#x201e;" horiz-adv-x="571" d="M0 79l78 78l79 -78l-136 -246l38 181zM237 79l79 78l78 -78l-136 -246l39 181z" />
<glyph unicode="&#x2026;" horiz-adv-x="900" d="M610 79l79 78l78 -78l-78 -78zM309 79l79 78l78 -78l-78 -78zM9 79l79 78l78 -78l-78 -78z" />
<glyph unicode="&#x202f;" horiz-adv-x="388" />
<glyph unicode="&#x2039;" horiz-adv-x="333" d="M0 401l260 490h44l-260 -490l260 -489h-44z" />
<glyph unicode="&#x203a;" horiz-adv-x="448" d="M0 -88l260 489l-260 490h44l260 -490l-260 -489h-44z" />
<glyph unicode="&#x205f;" horiz-adv-x="485" />
<glyph unicode="&#x2122;" horiz-adv-x="2071" d="M844 0l101 31v1187l-101 30h287l-72 -24l333 -1124l333 1118l-93 30h306l-101 -30v-1187l101 -31h-282l89 31v1127l-346 -1158h-74l-342 1150v-1119l89 -31h-228zM-17 1028v220h791v-220l-62 190h-287v-1187l101 -31h-295l102 31v1187h-287z" />
<glyph unicode="&#xe000;" horiz-adv-x="790" d="M0 790h790v-790h-790v790z" />
<glyph unicode="&#xfb01;" horiz-adv-x="857" d="M478 0l102 31v725l-102 31h283l-101 -31v-725l101 -31h-283zM542 1145l77 78l78 -78l-78 -78zM0 756v31h106v168q0 133 59 209q57 73 147 73q51 0 111 -23v-184l-62 175q-24 8 -51 7q-123 0 -123 -253v-172h217v-31h-217v-725l100 -31h-282l101 31v725h-106z" />
<glyph unicode="&#xfb02;" horiz-adv-x="824" d="M478 0l102 31v1152h-102l182 65v-1217l101 -31h-283zM0 756v31h106v168q0 133 59 209q57 73 147 73q51 0 111 -23v-184l-62 175q-24 8 -51 7q-123 0 -123 -253v-172h217v-31h-217v-725l100 -31h-282l101 31v725h-106z" />
<glyph unicode="&#xfb03;" horiz-adv-x="1335" d="M955 0l102 31v725l-102 31h283l-101 -31v-725l101 -31h-283zM1019 1145l77 78l78 -78l-78 -78zM478 756v31h106v168q0 133 59 209q57 73 147 73q51 0 111 -23v-184l-62 175q-24 8 -51 7q-123 0 -123 -253v-172h217v-31h-217v-725l100 -31h-282l101 31v725h-106zM0 756v31 h106v168q0 133 59 209q57 73 147 73q51 0 111 -23v-184l-62 175q-24 8 -51 7q-123 0 -123 -253v-172h217v-31h-217v-725l100 -31h-282l101 31v725h-106z" />
<glyph unicode="&#xfb04;" horiz-adv-x="1301" d="M955 0l102 31v1152h-102l182 65v-1217l101 -31h-283zM478 756v31h106v168q0 133 59 209q57 73 147 73q51 0 111 -23v-184l-62 175q-24 8 -51 7q-123 0 -123 -253v-172h217v-31h-217v-725l100 -31h-282l101 31v725h-106zM0 756v31h106v168q0 133 59 209q57 73 147 73 q51 0 111 -23v-184l-62 175q-24 8 -51 7q-123 0 -123 -253v-172h217v-31h-217v-725l100 -31h-282l101 31v725h-106z" />
</font>
</defs>
</svg>
